<svg xmlns="http://www.w3.org/2000/svg" xmlns:xlink="http://www.w3.org/1999/xlink" version="1.1" x="0px" y="0px" viewBox="0 0 100 125" style="enable-background:new 0 0 100 100;" xml:space="preserve"><g><path d="M50,26.4C37,26.4,26.4,37,26.4,50C26.4,63,37,73.6,50,73.6C63,73.6,73.6,63,73.6,50C73.6,37,63,26.4,50,26.4z M50,71.2   c-11.7,0-21.2-9.5-21.2-21.2S38.3,28.8,50,28.8S71.2,38.3,71.2,50S61.7,71.2,50,71.2z"/><path d="M50,21c0.8,0,1.4-0.6,1.4-1.4V5.8c0-0.8-0.6-1.4-1.4-1.4s-1.4,0.6-1.4,1.4v13.8C48.6,20.4,49.2,21,50,21z"/><path d="M50,79c-0.8,0-1.4,0.6-1.4,1.4v13.8c0,0.8,0.6,1.4,1.4,1.4s1.4-0.6,1.4-1.4V80.4C51.4,79.6,50.8,79,50,79z"/><path d="M94.2,48.6H80.4c-0.8,0-1.4,0.6-1.4,1.4s0.6,1.4,1.4,1.4h13.8c0.8,0,1.4-0.6,1.4-1.4S94.9,48.6,94.2,48.6z"/><path d="M21,50c0-0.8-0.6-1.4-1.4-1.4H5.8c-0.8,0-1.4,0.6-1.4,1.4s0.6,1.4,1.4,1.4h13.8C20.4,51.4,21,50.8,21,50z"/><path d="M72.5,29.5l9.8-9.8c0.5-0.5,0.5-1.4,0-2s-1.4-0.5-2,0l-9.8,9.8c-0.5,0.5-0.5,1.4,0,2C71,30,71.9,30,72.5,29.5z"/><path d="M27.5,70.5l-9.8,9.8c-0.5,0.5-0.5,1.4,0,2c0.5,0.5,1.4,0.5,2,0l9.8-9.8c0.5-0.5,0.5-1.4,0-2C29,70,28.1,70,27.5,70.5z"/><path d="M72.5,70.5c-0.5-0.5-1.4-0.5-2,0c-0.5,0.5-0.5,1.4,0,2l9.8,9.8c0.5,0.5,1.4,0.5,2,0s0.5-1.4,0-2L72.5,70.5z"/><path d="M27.5,29.5c0.5,0.5,1.4,0.5,2,0s0.5-1.4,0-2l-9.8-9.8c-0.5-0.5-1.4-0.5-2,0c-0.5,0.5-0.5,1.4,0,2L27.5,29.5z"/><path d="M38.7,40c-1.7-0.1-2.9,1.3-3.3,2.8c-0.3,1.3,1.6,1.8,1.9,0.5c0.1-0.6,0.5-1.3,1.2-1.4c0.4,0,1,0.4,1.1,0.8   c0.2,1.3,2.2,1.3,2,0C41.4,41.3,40.2,40.1,38.7,40z"/><path d="M61.3,40c-1.6,0.1-2.7,1.3-2.9,2.9c-0.2,1.3,1.9,1.3,2,0c0.1-0.5,0.6-0.9,1.1-0.8c0.7,0,1,0.8,1.2,1.4   c0.3,1.3,2.3,0.7,1.9-0.5C64.2,41.3,63,39.9,61.3,40z"/><path d="M50.1,52.6c-3.4,0-6,3.2-5.9,6.4c0,1.3,2.1,1.3,2,0c-0.1-2.2,1.6-4.4,3.9-4.4c2.3,0,4,2.1,4,4.3c0,1.3,2,1.3,2,0   C56.2,55.7,53.5,52.6,50.1,52.6z"/></g></svg>